# xmcd
#
# Track frame offsets:
# 150
# 12428
# 25419
# 38853
# 53785
# 67121
# 81178
# 93711
# 107986
# 121118
# 136376
# 150990
#
# Disc length: 2152 seconds
#
#
# Revision: 0
# Processed by: cddbd v1.4PL0 Copyright (c) Steve Scherf et al.
# Submitted via: FreeRIP 2.52 
#
DISCID=9e08660c
DTITLE=Doyle Lawson and Quick Silver - Thank God
DYEAR=2003
DGENRE=Bluegrass
TTITLE0=Calling From Heaven
TTITLE1=That's All He's Asking of Me
TTITLE2=Wait A Little Longer Please Jesus
TTITLE3=In God's Eyes
TTITLE4=Savoir's Love
TTITLE5=I Drink From The Fountain
TTITLE6=The Lord's Last Supper
TTITLE7=Thank God
TTITLE8=Will The Angels Play Their Harps For Me
TTITLE9=I'll Be Going To Heaven Sometime
TTITLE10=God Moved In
TTITLE11=Some Beautiful Day
EXTD=
EXTT0=
EXTT1=
EXTT2=
EXTT3=
EXTT4=
EXTT5=
EXTT6=
EXTT7=
EXTT8=
EXTT9=
EXTT10=
EXTT11=
PLAYORDER=
